# xmcd
#
# Track frame offsets: 
#        150
#        11583
#        23312
#        35250
#        49216
#        60691
#        74651
#        90232
#        102694
#        113993
#        127589
#        138406
#        150163
#        164126
#        173890
#        184105
#        195317
#        210273
#
# Disc length: 2981 seconds
#
# Revision: 2
# Processed by: cddbd v1.5.2PL0 Copyright (c) Steve Scherf et al.
# Submitted via: ExactAudioCopy v0.95b4
#
DISCID=e50ba312
DTITLE=Various Artist - Country Ballads [CD01)
DYEAR=2007
DGENRE=Country
TTITLE0=Kenny Rogers - Me And Bobby McGhee
TTITLE1=Waylon Jennings - Crying
TTITLE2=Lynn Anderson - You Don't Have To Say You Love Me
TTITLE3=Billie Jo Spears - Blue Bayou
TTITLE4=Freddy Fender - Before The Next Teardrop Falls
TTITLE5=Willie Nelson - Will You Remember Mine
TTITLE6=Skeeter Davis - Desperado
TTITLE7=Gene Autry - Have I Told You Lately That I Love You
TTITLE8=Hank Locklin - Send Me The Pillow
TTITLE9=Flying Burrito Brothers - Another Shade Of Grey
TTITLE10=Sammi Smith - Help Me Make It Through The Night
TTITLE11=Dolly Parton - Letter To Heaven
TTITLE12=Barbara Fairchild - Teddy Bear Song
TTITLE13=Brenda Lee - I'm Sorry
TTITLE14=Frankie Lane - I Believe
TTITLE15=Merle Kilgore - Love Has Made You Beautiful
TTITLE16=Anne Murray - Both Sides Now
TTITLE17=Glen Campbell - Rhinestone Cowboy
EXTD=
EXTT0=
EXTT1=
EXTT2=
EXTT3=
EXTT4=
EXTT5=
EXTT6=
EXTT7=
EXTT8=
EXTT9=
EXTT10=
EXTT11=
EXTT12=
EXTT13=
EXTT14=
EXTT15=
EXTT16=
EXTT17=
PLAYORDER=
